<mxfile host="app.diagrams.net" modified="2023-09-30T07:33:41.653Z" agent="Mozilla/5.0 (X11; Linux x86_64) AppleWebKit/537.36 (KHTML, like Gecko) Chrome/114.0.0.0 Safari/537.36" version="22.0.0" etag="WOUoJtHxV4ab3nOxxE7W" type="github">
  <diagram name="Page-1" id="ZImb_MyYqYFxsvIHfjOj">
    <mxGraphModel>
      <root>
        <mxCell id="0" />
        <mxCell id="1" parent="0" />
      </root>
    </mxGraphModel>
  </diagram>
</mxfile>
